<svg width="496" height="342" viewBox="0 0 496 342" fill="none" xmlns="http://www.w3.org/2000/svg">
<path d="M496 292C496 319.2 474.5 341.1 448.3 341.1H50.9998C24.7998 341.1 3.2998 319.2 3.2998 292V48.8C3.2998 21.6 24.7998 0 50.9998 0H448.3C474.5 0 496 21.6 496 48.8V292Z" fill="#DA1E34"/>
<path d="M48 0H448C474.4 0 496 21.6 496 48.8V292C496 319.2 474.4 341.1 448 341.1L48 0Z" fill="#C40C27"/>
<path d="M0 46V291.3C0 318.9 21.2 341.1 47.2 341.1H140.7L168.2 331.6L132.8 319.2L168.2 306.8L132.8 294.8L168.2 282L132.8 269.9L168.2 257.3L132.8 245.2L168.2 232.6L132.8 220.5L168.2 207.9L132.8 195.8L168.2 183.2L132.8 169.5L168.2 157.4L132.8 144.8L168.2 132.7L132.8 120.1L168.2 108L132.8 95.4L168.2 83.4L132.8 70.8L168.2 58.8L132.8 46.4L168.2 34.4L132.8 21.8L168.2 9.8L140.7 0.200004H47.2C25.5 -0.499996 1.7 17.5 0 46Z" fill="#F4F4F4"/>
<path d="M171.2 83.7L135.2 71.1L171.2 59L135.2 46.4L171.2 34.3L135.2 21.7L171.2 9.6L143.2 0H48L153.6 89.6L171.2 83.7Z" fill="#E1E1E1"/>
<path d="M135.2 319.1L171.2 306.7L135.2 294.7L137.2 293.7H0C0 320.9 21.6 341.2 48 341.2H143.2L171.2 331.7L135.2 319.1Z" fill="#E1E1E1"/>
<path d="M135.2 21.7L171.2 9.6L143.2 0H112.8L141.6 9.6L104.8 21.7L141.6 34.3L104.8 46.4L141.6 59L104.8 71.1L141.6 83.7L104.8 95.6L141.6 108.2L104.8 120.3L141.6 132.9L104.8 144.9L141.6 157.5L104.8 169.6L141.6 183.3L104.8 195.9L141.6 207.9L104.8 220.5L141.6 232.6L104.8 245.2L141.6 257.2L104.8 269.8L141.6 281.9L104.8 294.6L141.6 306.7L104.8 319.1L141.6 331.6L112.8 341.1H143.2L171.2 331.6L135.2 319.1L171.2 306.7L135.2 294.6L171.2 281.9L135.2 269.8L171.2 257.2L135.2 245.2L171.2 232.6L135.2 220.5L171.2 207.9L135.2 195.9L171.2 183.3L135.2 169.6L171.2 157.5L135.2 144.9L171.2 132.9L135.2 120.3L171.2 108.2L135.2 95.6L171.2 83.7L135.2 71.1L171.2 59L135.2 46.4L171.2 34.3L135.2 21.7Z" fill="#E1E1E1"/>
</svg>
