<?xml version="1.0" encoding="UTF-8"?>
<svg id="Layer_1" xmlns="http://www.w3.org/2000/svg" version="1.1" viewBox="0 0 512 512">
  <g>
    <path fill="#e5e6e6" d="M222.67,182.81c4.45,7.42,7.92,14.35,13.86,20.79,3.46,5.44,1.59,13.36.4,18.34-.49,2.02-1.39,4.68-3.42,9.5-2.02,4.82-2.83,4.35-2.83,4.35-2.1,1.69-4.13-.32-6.03-.53l-1.33,1.84c-2.73.76-5.06.3-7.73-.06-.59.53-.64,1.65-.46,2.33,1.08,5.21.68,13.04,7.77,14.75,4.19,5.82,11.41,9.33,17.36,13.56,3.2.95,4.89,3.05,7.94,4.78,1.31.74,3.26-.17,4.44-1.23.68-.19,1.65.64,1.5,1.42-.11,2.24-2.64,1.1-3.47,2.07.74,5.31,9.21,4.06,8.68,10.09-.51,3.45-1.71,7.09-1.97,10.1l1.12.06c2.6-2.56,4.29-7.07,6.6-10.65l1.18-1.06c1.36-.38,2.08.89,3.2.95.78.15,2.14-.23,2.98-1.19.17-3.36.78-6.46,1.29-9.91,1.76-1.59,4.53-.89,6.67-1.12,2.6-2.56,6.82-1.89,8.89-5.04.59-.53,1.76-1.59.8-2.43-.53-.59-1.55-.3-1.9-.21-.42-.29-.87-.5-1.31-.72,0,.55-1.77.83-2.57,1.06-.97.05-1.48-.35-1.49-.56-.04-.64.92-.91,1.89-.97l1.23.07c-4.08-1.51-8.69-.64-12.31-3.66-.68.19-1.71.47-2.24-.11-.23-2.14-3.3-1.29-4.61-2.03-4.53.89-8.45-1.33-12.49-1.31-6.94-2.48-14.9-4.68-19.03-11.62-3.43-3.09-2.18-7.85-1.42-11.73,1.77-6.18,6.63-11.78,12.07-15.74,5.44-1.98,7.42,5.44,11.38,7.42.49-1.98-2.47-3.96-2.47-5.94-.49-1.48-1.98-3.96,0-4.95,6.43.99,7.92,6.93,12.87,10.39,1.98,2.47,4.45-.49,6.93-.99-4.45-2.97-5.94-7.92-6.43-13.36,2.47-1.48,0-4.45,2.47-5.94,4.45-.99,7.42,3.96,12.37,3.46,2.97.49,4.45-1.98,6.43-3.96l-1.48-4.95c-4.08-2.27-10.2-2.1-12.72-6.62-.05.04-.06.08-.13.11-1.34.56-5.23,1.17-5.02-.6.75-.99,3.35-1.39,4.52-.54.07.05.13.1.2.15-.06-.15-.16-.26-.21-.43-.96-2.4-3.31-2.92-5.71-2.95.04.25.12.45.11.76-.99,2.78-4.77,4.57-6.6,2.66-.91-.95-1.83-1.91-.87-2.82.92-.88,2.71-1.94,4.31-2.3-10.17-5.99-21.33-10.28-30.84-16.62-5.94-2.97-9.4-8.41-10.89-14.35-2.47-.99-1.48,2.97-2.97,3.46-.99,0-1.92-3.13-2.41-4.12-1.98-2.97-2.54-4.3-7.49-4.79-2.97,0-4.95-.5-7.42-1.48-1.48-.99-4.95-1.48-4.45.99,3.46,13.86,12.87,24.25,23.26,34.15ZM229.9,259.33c-2.16-1-3.35-2.42-4.53-3.83-.39-.47-1.58-1.89,0-1.07,1.28.2,2.56,1.47,3.84,2.74.79.95,1.97,2.36.69,2.16ZM268.41,279.9c.75-.49,1.86-1.22,2.87-.59.61,1.15-.5,1.88-1.62,2.61-.37.24-1.49.98-1.78.13-1.01-.63-.24-1.39.53-2.15ZM240.46,219.53c.89-.15.19.85-.51,1.85-.23.33-.93,1.33-1.45,1.32-1.05.57-.65-.19-.26-.94.47-.67,1.17-1.66,2.22-2.23ZM210.58,166.43c.99.96,2.48,2.39,3.4,4.21.31,1.42-1.17-.01-2.66-1.44-.5-.48-1.98-1.91-2.03-2.7-.92-1.82.18-.95,1.29-.07Z"/>
    <path fill="#e5e6e6" d="M319.64,280.45c-3.23,0-6.2,1.53-9.35,2.72-6.42.69-7.6,2.02-7.79,2.33-3.23,2.39-8.03,1.97-10.09,5.22-3.57-.39-5.25,2.54-8.24,2.88-5.47.61-8.93,5.69-15.07,4.81-1.28,2.1-3.89,1.22-5.25,2.54-.91.88-2.31,1.82-1.64,3.32-.86,1.74-2.65,1.86-4.51,1.73-1.33-.09-2.63.3-3.73.95-1.56.93-3.66,1.33-5.44,1.57-.98.13-1.94.39-2.78.83-4.52,2.36-7.84,5.54-13.26,5.87-1.33.08-2.61.5-3.7,1.14-3.05,1.8-6.74,3.71-9.81,2.12-.62.24-.94.66-1.1,1.12-.43,1.25-1.21,2.42-2.54,3.21l-6.52,3.85c-3.93,1.68-4.68,1.26-4.68,1.26-1.43-.05-2.86-.29-4.31-.77-5.83-3.94-12.56-9.16-11.84-17.12-1.56-.05-3.6.05-4.98-1.09-2.51.24-3.56,3.65-6.02,2.32-4.17-1.85-5.6,3.74-8.16,5.54-.1,1.15.24,1.97.86,2.91,0-.03.1.1.11.06-.75-2.28.96-1.6,2.67-.92,1.43.87,3.58,2.18,4.33,4.46-.24,2.03-2.39.73-4.54-.58-.16-.1-.32-.15-.57-.32.28.38.48.68.69,1.08.09,2.04-2.14,3.22-4.03,3.79-.24,2.65,1.37,6.3,2.7,9.01-.52,1.71-2.42,2.27-3.84,2.7-.05,1.56,1.66,2.09,2.89,2.75,3.36,2.61,3.5,8.25,8,9.49,14.55.29,28.2,9.64,41.99,14.3,5.02-.47,9.2-3.79,12.28-7.29,4.13-1.75,9.39.29,11.71-4.02,5.45.95,9.48-2.84,14.08-4.73,2.71-6.49,7.45-13.08,14.28-16.15,5.41-2.65,4.89-11.28,11.67-12.79,1.9-5.73,8.63-5.68,11.29-10.61,10.2-5.63,18.12-13.69,28.17-19.8,2.56-1.8,6.02-2.32,8.3-5.07,5.36-1.09,8.63-5.68,13.09-8.05-7.82-.24-16.97,1.98-25.31,3.44ZM178.44,328.27c-.84-.25-2.09-.63-2.84-1.65-.23-1.02,1.03-.64,2.29-.26.42.13,1.68.51,1.69,1.14.75,1.02-.19.89-1.13.76ZM250.8,333.85c1.71-1.75,3.43-3.5,5.67-4.24,1.21-.2,2.76-1.01,4.14-.87-1.88,2.69-6.01,4.84-9.28,6.12-.18-.34-.87-.41-.53-1.01ZM286.79,314.3c-3.06,3.73-8.54,6.79-11.82,10.13-3.27,3.34-8.83,4.43-11.68,8.54-2.35,1.31-4.49,3.01-5.91,2.3l2.27-3.29c8.68-8.38,22.43-15.06,30.9-23.82l4.13-1.81c1.29,2.3-4.41,4.99-7.9,7.94ZM302.46,285.56l-.32.22.34-.25s-.02.03-.02.03Z"/>
  </g>
  <path fill="#eb1564" d="M245.17,247.59v-15.9l11.24-11.25v15.9l-11.24,11.25Z"/>
  <path fill="#eb1564" d="M226.29,247.9v-16.11l11.41-11.4v16.1l-11.41,11.41Z"/>
  <path fill="#eb1564" d="M130.76,247.5v-15.99l11.09-11.08v15.99l-11.09,11.08Z"/>
  <path fill="#eb1564" d="M75.34,247.44v-15.9l11.25-11.24v15.9l-11.25,11.25Z"/>
  <path fill="#eb1564" d="M20.12,247.74v-15.99l11.25-11.25v15.99l-11.25,11.24Z"/>
  <path fill="#eb1564" d="M296.99,247.62v-16.08l11.09-11.08v16.08l-11.09,11.08Z"/>
  <path fill="#eb1564" d="M374.87,247.96v-16.08l11.4-11.41v16.08l-11.4,11.41Z"/>
  <path fill="#eb1564" d="M480.66,283.5v-10.08l11.25-11.24v10.08l-11.25,11.24Z"/>
  <path fill="#414141" d="M245.17,222.63v-12.26c0-8.52,6.93-15.45,15.44-15.45h28.61v11.24h-28.6c-2.32,0-4.21,1.89-4.21,4.21v1.01l-11.24,11.25Z"/>
  <path fill="#414141" d="M289.22,315.42h-44.05v-58.51l11.24-11.25v2.61h23.25v11.24h-23.25v44.66h32.81v11.25Z"/>
  <path fill="#414141" d="M226.29,222.72v-27.8h11.41v16.4l-11.41,11.4Z"/>
  <path fill="#414141" d="M213.68,316.37c-14.27,0-23.86-10.61-23.86-26.41v-5.06h11.25v5.06c0,9.39,4.71,15,12.61,15s12.61-5.61,12.61-15v-32.96l11.41-11.4v44.36c0,15.79-9.65,26.41-24.02,26.41Z"/>
  <path fill="#414141" d="M156.21,316.06c-14.98,0-25.45-10.86-25.45-26.41v-32.92l11.09-11.09v44c0,9.21,5.64,15.16,14.37,15.16s14.52-5.95,14.52-15.16v-69.12c0-9.21-5.7-15.16-14.52-15.16l-10.05.04c-2.31,0-4.32,1.97-4.32,4.22v1.73l-11.09,11.08v-12.81c0-8.55,6.9-15.5,15.39-15.5h10.06c15.18-.01,25.77,10.85,25.77,26.4v69.12c0,15.3-10.84,26.41-25.77,26.41Z"/>
  <path fill="#414141" d="M125.85,315.42h-13.14l-18.95-39.34h-7.16v39.34h-11.25v-58.66l11.25-11.25v19.32h10.7c10.07,0,14.36-4.72,14.36-15.8v-28.83c0-9.32-4.83-14.05-14.36-14.05h-6.48c-2.33,0-4.22,1.89-4.22,4.21v.86l-11.25,11.24v-12.1c0-8.52,6.97-15.45,15.54-15.45h6.41c15.8,0,25.61,9.69,25.61,25.29v28.83c0,14.06-5.66,22.73-16.84,25.82l19.79,40.56Z"/>
  <path fill="#414141" d="M31.37,315.42h-11.25v-58.45l11.25-11.24v22.93h10.7c9.26,0,14.37-4.82,14.37-13.57v-35.2c0-8.85-5.1-13.73-14.37-13.73h-6.52c-2.31,0-4.18,1.89-4.18,4.21v1.07l-11.25,11.24v-12.31c0-8.52,6.92-15.45,15.43-15.45h6.52c15.56,0,25.61,9.8,25.61,24.97v35.2c0,15.07-10.05,24.81-25.61,24.81h-10.7v35.52Z"/>
  <path fill="#414141" d="M296.99,222.47v-12.68c-.01-8.53,6.92-15.46,15.45-15.46h10c15.17,0,25.77,11.1,25.77,26.99v4.11h-11.24v-4.11c0-9.44-5.84-15.78-14.52-15.78l-10.1.06c-2.36,0-4.26,1.88-4.26,4.2v1.59l-11.08,11.08Z"/>
  <path fill="#414141" d="M322.44,316.21c-14.98,0-25.45-10.92-25.45-26.57v-32.89l11.09-11.08v43.97c0,9.31,5.64,15.32,14.37,15.32s14.52-6.26,14.52-15.96v-4.11h11.24v4.11c0,16.02-10.6,27.2-25.77,27.2Z"/>
  <path fill="#414141" d="M386.27,315.42h-11.4v-58.32l11.4-11.41v69.72Z"/>
  <path fill="#414141" d="M374.87,222.82v-16.81h-19.27v-11.09h50.27v11.09h-19.59v5.41l-11.4,11.41Z"/>
  <path fill="#414141" d="M480.68,267.64l-.04-12.88c0-2.41-1.95-4.36-4.36-4.36h-16.33v-11.25h16.36c2.38,0,4.32-1.96,4.32-4.36l.02-13.66c0-10.06-4.89-15.16-14.52-15.16s-14.36,5.1-14.36,15.16v4.75h-11.09v-4.75c0-16.29,9.75-26.41,25.45-26.41s25.77,10.37,25.77,26.41l.06,13.64c0,3.69-1.29,7.2-3.61,9.99,2.32,2.79,3.61,6.3,3.61,9.99l.02,1.04-11.3,11.85Z"/>
  <path fill="#414141" d="M466.13,316.08c-15.46,0-25.45-10.37-25.45-26.41v-4.74h11.09v4.74c0,10.06,4.83,15.16,14.36,15.16s14.16-4.83,14.45-14.35l.05-.83,11.26-11.26v11.28c0,16.04-10.11,26.41-25.77,26.41Z"/>
  <g>
    <path fill="#414141" d="M50.52,178.31c0,.77-.62,1.38-1.38,1.38h-12.46v8.59c0,.76-.62,1.38-1.38,1.38s-1.38-.62-1.38-1.38v-8.59h-12.51c-.76,0-1.38-.62-1.38-1.38s.62-1.38,1.38-1.38h27.73c.76,0,1.38.62,1.38,1.38Z"/>
    <path fill="#414141" d="M86.8,178.31v9.98c0,.76-.62,1.38-1.38,1.38s-1.38-.62-1.38-1.38v-2.67h-24.91v2.67c0,.76-.62,1.38-1.38,1.38-.81,0-1.43-.62-1.43-1.38v-9.98c0-.81.62-1.43,1.43-1.43.76,0,1.38.62,1.38,1.43v4.53h24.91v-4.53c0-.76.62-1.38,1.38-1.38s1.38.62,1.38,1.38Z"/>
    <path fill="#414141" d="M122.97,188.29c0,.76-.62,1.38-1.38,1.38h-27.73c-.76,0-1.38-.62-1.38-1.38v-9.98c0-.81.62-1.43,1.38-1.43h27.73c.76,0,1.38.62,1.38,1.43,0,.77-.62,1.38-1.38,1.38h-26.35v2.2h22.81c.76,0,1.38.62,1.38,1.38s-.62,1.38-1.38,1.38h-22.81v2.24h26.35c.76,0,1.38.62,1.38,1.38Z"/>
  </g>
</svg>
