<?xml version="1.0" encoding="UTF-8"?>
<svg id="Layer_1" xmlns="http://www.w3.org/2000/svg" xmlns:xlink="http://www.w3.org/1999/xlink" version="1.1" viewBox="0 0 2000 2000">
  <!-- Generator: Adobe Illustrator 29.3.1, SVG Export Plug-In . SVG Version: 2.1.0 Build 151)  -->
  <defs>
    <linearGradient id="linear-gradient" x1="1338" y1="489.5" x2="555.7" y2="1844.5" gradientTransform="translate(0 2000) scale(1 -1)" gradientUnits="userSpaceOnUse">
      <stop offset="0" stop-color="#28e6c5"/>
      <stop offset=".5" stop-color="#6842e2"/>
      <stop offset="1" stop-color="#081428"/>
    </linearGradient>
    <linearGradient id="linear-gradient1" x1="884.8" y1="432.7" x2="258.9" y2="1516.8" gradientTransform="translate(0 2000) scale(1 -1)" gradientUnits="userSpaceOnUse">
      <stop offset="0" stop-color="#28e6c5"/>
      <stop offset=".5" stop-color="#6842e2"/>
      <stop offset="1" stop-color="#081428"/>
    </linearGradient>
  </defs>
  <path d="M984.1,106.4h0c492.1,0,891.1,399,891.1,891.1h0c0,492.1-399,891.1-891.1,891.1h0c-492.1,0-891.1-399-891.1-891.1h0c0-492.1,399-891.1,891.1-891.1Z" fill="#081428"/>
  <g>
    <path d="M1308.1,995.8c0,27-2.6,53.6-7.8,79.2-11.8,59.4-36.6,114.2-71.5,161-23.1,31-50.7,58.6-81.5,81.8-46.8,35.1-101.6,60.4-161.1,72.4v-167.8c68.5-24.3,123-78.8,147.3-147.3,8.8-25.3,13.8-52.3,13.8-80.5s-4.8-55.3-13.6-80.4c-24.3-68.8-78.8-123.2-147.5-147.5-25.1-8.8-52.2-13.6-80.4-13.6h-80.5v161.1h-161.1v-240.2c46.8-35.3,101.6-60.6,161.1-72.7,26-5.2,53-8.1,80.5-8.1s54.5,2.8,80.4,8.1c59.6,12.1,114.3,37.3,161.1,72.5,30,22.5,56.8,49.3,79.6,79.2,35.4,46.8,60.9,101.6,73,161.1,5.6,26.4,8.4,53.6,8.4,81.7v-.2Z" fill="url(#linear-gradient)"/>
    <circle cx="742" cy="1320" r="82.1" fill="url(#linear-gradient1)"/>
  </g>
</svg>